<svg xmlns="http://www.w3.org/2000/svg" width="153" height="33.57" viewBox="0 0 153 33.57"><g transform="translate(35.761 9.285)"><path d="M456.055,512.545H444.916a1.526,1.526,0,1,0,0,3.052h4.043v11.75a1.526,1.526,0,0,0,3.052,0V515.6h4.044a1.526,1.526,0,0,0,0-3.052Z" transform="translate(-443.39 -512.112)" fill="#35c567"/><path d="M512.038,517.952a5.413,5.413,0,0,0-5.407-5.407h-6.39a1.526,1.526,0,0,0-1.526,1.526v13.275a1.526,1.526,0,1,0,3.052,0v-3.988H505.5l3.8,4.921a1.526,1.526,0,0,0,2.414-1.866l-2.766-3.579h0l-.012-.015A5.41,5.41,0,0,0,512.038,517.952Zm-5.407,2.355h-.379v.024h-.021v-.026h-4.463V515.6h4.864a2.355,2.355,0,0,1,0,4.71Z" transform="translate(-482.963 -512.112)" fill="#35c567"/><path d="M554.868,512.545a1.526,1.526,0,0,0-1.526,1.526v13.276a1.526,1.526,0,0,0,3.052,0V514.071A1.526,1.526,0,0,0,554.868,512.545Z" transform="translate(-522.036 -512.112)" fill="#35c567"/><path d="M583,512.545h-5.474A1.526,1.526,0,0,0,576,514.071v13.276a1.526,1.526,0,0,0,3.052,0v-3.225H583a5.788,5.788,0,0,0,0-11.576Zm0,8.525h-3.948V515.6H583a2.737,2.737,0,0,1,0,5.473Z" transform="translate(-538.243 -512.112)" fill="#35c567"/><path d="M637.873,523.7a1.526,1.526,0,0,0-1.526-1.526h0a1.526,1.526,0,0,1,1.526,1.526,4.324,4.324,0,0,0-2.067-3.7,11.632,11.632,0,0,0-4.151-1.536h-.006c-2.995-.651-2.993-1.764-2.89-2.563.113-.882.869-1.392,2.852-1.289a1.708,1.708,0,0,0,.24.017h0a8.479,8.479,0,0,1,3.032,1.039,1.526,1.526,0,0,0,1.4-2.711,11.167,11.167,0,0,0-4.24-1.376h-.006l-.049,0c-.252-.017-.5-.027-.742-.027-3.275,0-5.531,1.569-5.614,4.949a4.141,4.141,0,0,0,2.086,3.716A9.86,9.86,0,0,0,631,521.444h0l.01,0h0c3.8.793,3.8,1.854,3.8,2.254h0a1.663,1.663,0,0,1-.5,1.216,3.346,3.346,0,0,1-2.365.72l-.18,0h-.009a7.885,7.885,0,0,1-4.3-1.5,1.526,1.526,0,0,0-1.674,2.552,10.823,10.823,0,0,0,5.909,2h.008c.084,0,.168,0,.25,0a6.178,6.178,0,0,0,4.5-1.587,4.706,4.706,0,0,0,1.418-3.4Zm-5.941-12.127Zm0,0h0l-.012,0H631.9Z" transform="translate(-573.365 -511.399)" fill="#35c567"/><path d="M683.433,511.023h0a8.645,8.645,0,1,0,8.645,8.645A8.655,8.655,0,0,0,683.432,511.023Zm0,14.239a5.6,5.6,0,0,1-5.593-5.594h0a5.6,5.6,0,0,1,5.593-5.593h0a5.593,5.593,0,0,1,0,11.187Z" transform="translate(-608.902 -511.023)" fill="#35c567"/><path d="M750.662,512.546h-6.056a1.526,1.526,0,0,0-1.526,1.526v13.276a1.526,1.526,0,0,0,1.526,1.526h6.051c4.345-.05,7.61-3.543,7.61-8.163S755,512.6,750.662,512.546Zm-.1,13.275h-4.43V515.6h4.43c2.7,0,4.654,2.15,4.654,5.112h0C755.215,523.671,753.258,525.82,750.562,525.82Z" transform="translate(-657.751 -512.112)" fill="#35c567"/><path d="M813.437,526.654l-6.735-13.26c.02.04.029.084.045.126a1.537,1.537,0,0,0-.209-.366c-.028-.037-.055-.073-.086-.107a1.514,1.514,0,0,0-.4-.32c-.009,0-.014-.014-.023-.018s-.041-.008-.061-.017a1.5,1.5,0,0,0-.449-.124c-.039,0-.076-.014-.115-.015-.023,0-.043-.009-.067-.009a1.517,1.517,0,0,0-.451.073c-.023.007-.043.019-.065.027a1.482,1.482,0,0,0-.412.229c-.026.02-.053.037-.078.059a1.535,1.535,0,0,0-.327.413c-.007.013-.02.02-.026.033l-6.743,13.276a1.526,1.526,0,1,0,2.721,1.382l1.07-2.107h8.625l1.07,2.107a1.526,1.526,0,0,0,2.721-1.382ZM806.822,514.4a1.517,1.517,0,0,1-.126.357A1.552,1.552,0,0,0,806.822,514.4Zm.03-.259c0-.006,0-.013,0-.019,0-.03.007-.06.007-.09C806.856,514.066,806.853,514.1,806.851,514.139Zm-.053-.476a1.537,1.537,0,0,1,.036.19A1.561,1.561,0,0,0,806.8,513.663Zm1.3,9.214h-5.525l2.762-5.438,2.762,5.438Z" transform="translate(-696.363 -512.11)" fill="#35c567"/></g><path d="M337.92,485.025a3.44,3.44,0,1,0-1.832-4.506A3.428,3.428,0,0,0,337.92,485.025Zm-.383-3.9a1.865,1.865,0,0,1,1.723-1.141,1.845,1.845,0,0,1,.723.146,1.866,1.866,0,1,1-2.446,1Z" transform="translate(-330.685 -478.415)" fill="#35c567"/><path d="M330.618,529.718a10.323,10.323,0,0,1-2.739-20.276,10.606,10.606,0,0,1,.905-2.739,12.824,12.824,0,1,0,14.452,14.974,10.664,10.664,0,0,1-2.717.64A10.341,10.341,0,0,1,330.618,529.718Z" transform="translate(-317.793 -498.649)" fill="#35c567"/><path d="M366.807,486.213a10.668,10.668,0,0,0-3.659.657,1.269,1.269,0,0,1,.125.826,1.3,1.3,0,0,1-1.534,1.006,1.274,1.274,0,0,1-.869-.678,10.626,10.626,0,0,0-3.559,3.907,10.778,10.778,0,0,0-1.241,4.486q-.014.272-.014.546a10.764,10.764,0,0,0,10.751,10.751q.546,0,1.079-.054a10.28,10.28,0,0,0,.415-2.585c0-.112.009-.224.009-.337a10.27,10.27,0,0,0-.475-3.088s0,0,0,0c-.044-.143-.089-.344-.089-.344a1.269,1.269,0,0,1-.013-.169,1.249,1.249,0,0,1,2.421-.434c.012.037.023.074.035.111a12.723,12.723,0,0,1,.608,3.372c.008.185.014.37.014.556a12.826,12.826,0,0,1-.208,2.282,10.75,10.75,0,0,0-3.8-20.808Zm-.412,5.365a.42.42,0,1,1,.326.5A.421.421,0,0,1,366.4,491.578Zm-3.7-.9a.841.841,0,1,1,.652.994A.84.84,0,0,1,362.7,490.681Zm7.59,4.534-2.044,1.834-.233.209a.178.178,0,0,1-.173.037l-3.9-1.229,3.092,2.122a.178.178,0,0,1,.077.143l.041,1.663.019.795-.6-1.2a.178.178,0,0,0-.3-.026l-1.948,2.639a.178.178,0,0,1-.3-.021l-4.13-7.59-.581-1.069-.149-.274a.178.178,0,0,1,.188-.261l.209.037,5.4.953,5.245.926A.178.178,0,0,1,370.288,495.215Z" transform="translate(-345.162 -483.993)" fill="#35c567"/></svg>